<?xml version="1.0" encoding="utf-8"?>
<svg version="1.1" xmlns:xlink="http://www.w3.org/1999/xlink" width="27px" height="24px" xmlns="http://www.w3.org/2000/svg">
  <g transform="matrix(1 0 0 1 -212 -235 )">
    <path d="M 27 3  C 27 1.3425  25.79175 0  24.3 0  L 2.7 0  C 1.20825 0  0.0134999999999997 1.3425  0 3  L 0 21  C 0 22.6575  1.20825 24  2.7 24  L 24.3 24  C 25.79175 24  27 22.6575  27 21  L 27 3  Z M 24.3 3  L 24.3 6  L 13.5 13.5  L 2.7 6  L 2.7 3  L 13.5 10.5  L 24.3 3  Z " fill-rule="nonzero" fill="#019381" stroke="none" fill-opacity="0.901960784313726" transform="matrix(1 0 0 1 212 235 )" />
  </g>
</svg>