<?xml version="1.0" encoding="utf-8"?>
<svg version="1.1" xmlns:xlink="http://www.w3.org/1999/xlink" width="40px" height="27px" xmlns="http://www.w3.org/2000/svg">
  <g transform="matrix(1 0 0 1 -52 -29 )">
    <path d="M 20.0312989045383 20.6867945823928  C 28.7435159102765 20.6867945823928  36.5032237871675 24.3915643340858  39.9891079812207 26.9480011286682  C 39.9990818988002 26.447881489842  40.0090558163798 25.9599006772009  39.9766405842462 25.4622088036117  L 38.9717683881064 10.793651241535  C 38.7856421697647 7.95055557449074  37.1428836442039 5.38940488840182  34.600699008868 3.97891422121896  C 31.3716431924883 2.18722347629796  26.2226082420449 0.0507900677200874  20.0312989045383 0.0507900677200874  C 13.8399895670318 0.0507900677200874  8.69095461658842 2.18722347629796  5.46189880020866 3.97891422121896  C 2.91971416487276 5.38940488840182  1.27695563931201 7.95055557449073  1.09082942097027 10.793651241535  L 0.083463745435577 25.4622088036117  C 0.0510485133020353 25.9599006772009  0.0585289514866999 26.447881489842  0.0709963484611384 26.9480011286682  C 3.55937402190923 24.3915643340858  11.3190818988002 20.6867945823928  20.0312989045383 20.6867945823928  Z " fill-rule="nonzero" fill="#86bacf" stroke="none" transform="matrix(1 0 0 1 52 29 )" />
  </g>
</svg>