<?xml version="1.0" encoding="utf-8"?>
<svg version="1.1" xmlns:xlink="http://www.w3.org/1999/xlink" width="20px" height="28px" xmlns="http://www.w3.org/2000/svg">
  <g transform="matrix(1 0 0 1 -546 -320 )">
    <path d="M 15.859375 17.8125  C 15.953125 18.375  16 18.9895833333333  16 19.65625  C 16 20.3229166666667  15.8072916666667 20.8802083333333  15.421875 21.328125  C 15.0364583333333 21.7760416666667  14.5625 22  14 22  L 6 22  C 5.4375 22  4.96354166666667 21.7760416666667  4.578125 21.328125  C 4.19270833333333 20.8802083333333  4 20.3229166666667  4 19.65625  C 4 18.9895833333333  4.046875 18.375  4.140625 17.8125  C 4.234375 17.25  4.38802083333333 16.7083333333333  4.6015625 16.1875  C 4.81510416666667 15.6666666666667  5.1328125 15.2578125  5.5546875 14.9609375  C 5.9765625 14.6640625  6.47916666666667 14.515625  7.0625 14.515625  C 7.89583333333333 15.296875  8.875 15.6875  10 15.6875  C 11.125 15.6875  12.1041666666667 15.296875  12.9375 14.515625  C 13.5208333333333 14.515625  14.0234375 14.6640625  14.4453125 14.9609375  C 14.8671875 15.2578125  15.1848958333333 15.6666666666667  15.3984375 16.1875  C 15.6119791666667 16.7083333333333  15.765625 17.25  15.859375 17.8125  Z M 12.5390625 9.0390625  C 13.2421875 9.73177083333333  13.59375 10.5677083333333  13.59375 11.546875  C 13.59375 12.5260416666667  13.2421875 13.3619791666667  12.5390625 14.0546875  C 11.8359375 14.7473958333333  10.9895833333333 15.09375  10 15.09375  C 9.01041666666667 15.09375  8.1640625 14.7473958333333  7.4609375 14.0546875  C 6.7578125 13.3619791666667  6.40625 12.5260416666667  6.40625 11.546875  C 6.40625 10.5677083333333  6.7578125 9.73177083333333  7.4609375 9.0390625  C 8.1640625 8.34635416666666  9.01041666666667 8  10 8  C 10.9895833333333 8  11.8359375 8.34635416666666  12.5390625 9.0390625  Z M 17.8515625 25.8515625  C 17.9505208333333 25.7526041666667  18 25.6354166666667  18 25.5  L 18 4  L 2 4  L 2 25.5  C 2 25.6354166666667  2.04947916666667 25.7526041666667  2.1484375 25.8515625  C 2.24739583333333 25.9505208333333  2.36458333333333 26  2.5 26  L 17.5 26  C 17.6354166666667 26  17.7526041666667 25.9505208333333  17.8515625 25.8515625  Z M 19.265625 0.734375000000001  C 19.7552083333333 1.22395833333333  20 1.8125  20 2.5  L 20 25.5  C 20 26.1875  19.7552083333333 26.7760416666667  19.265625 27.265625  C 18.7760416666667 27.7552083333333  18.1875 28  17.5 28  L 2.5 28  C 1.8125 28  1.22395833333333 27.7552083333333  0.734375 27.265625  C 0.244791666666667 26.7760416666667  0 26.1875  0 25.5  L 0 2.5  C 0 1.8125  0.244791666666667 1.22395833333333  0.734375 0.734375000000001  C 1.22395833333333 0.244791666666667  1.8125 0  2.5 0  L 8 0  L 8 1.5  C 8 1.64583333333333  8.046875 1.765625  8.140625 1.859375  C 8.234375 1.953125  8.35416666666667 2  8.5 2  L 11.5 2  C 11.6458333333333 2  11.765625 1.953125  11.859375 1.859375  C 11.953125 1.765625  12 1.64583333333333  12 1.5  L 12 0  L 17.5 0  C 18.1875 0  18.7760416666667 0.244791666666667  19.265625 0.734375000000001  Z " fill-rule="nonzero" fill="#019381" stroke="none" fill-opacity="0.901960784313726" transform="matrix(1 0 0 1 546 320 )" />
  </g>
</svg>