<?xml version="1.0" encoding="utf-8"?>
<svg version="1.1" xmlns:xlink="http://www.w3.org/1999/xlink" width="37px" height="12px" xmlns="http://www.w3.org/2000/svg">
  <g transform="matrix(1 0 0 1 -54 -29 )">
    <path d="M 0.0140575657894734 11.9107857142857  L 0.0867796052631606 11.4522959183673  C 0.267724596227539 8.59630639342267  1.86475337171409 6.02354051147847  4.33617077850877 4.60665306122449  C 7.47533881578947 2.80683673469387  12.4810391995614 0.660714285714283  18.5 0.660714285714283  C 24.5189608004386 0.660714285714283  29.5246611842105 2.80683673469387  32.6638292214912 4.60665306122449  C 35.1352466282859 6.02354051147847  36.7322754037725 8.59630639342267  36.9132203947368 11.4522959183673  L 36.988366502193 11.9839489795918  L 36.9156444627193 10.8426020408163  C 36.7341841284311 7.98612400567596  35.1361785958227 5.413252293401  32.6638292214912 3.99695918367347  C 29.5246611842105 2.19714285714285  24.5189608004386 0.0510204081632624  18.5 0.0510204081632624  C 12.4810391995614 0.0510204081632624  7.47533881578947 2.19714285714285  4.33617077850877 3.99695918367347  C 1.86475337171409 5.41384663392745  0.267724596227539 7.98661251587164  0.0867796052631589 10.8426020408163  L 0.0140575657894734 11.9107857142857  Z " fill-rule="nonzero" fill="#ffffff" stroke="none" transform="matrix(1 0 0 1 54 29 )" />
  </g>
</svg>