<?xml version="1.0" encoding="utf-8"?>
<svg version="1.1" xmlns:xlink="http://www.w3.org/1999/xlink" width="44px" height="20px" xmlns="http://www.w3.org/2000/svg">
  <g transform="matrix(1 0 0 1 -50 -50 )">
    <path d="M 43.9693593314763 11.8096646942801  C 43.9693593314763 10.1031952662722  43.7008449396472 7.76504930966469  41.5380835654596 6.40741617357001  L 41.5380835654596 6.29428007889546  L 41.5380835654596 6.10336291913215  C 38.1255097493036 3.62143984220907  30.5289935004643 0.0246548323471378  22 0.0246548323471378  C 13.4710064995357 0.0246548323471378  5.87449025069638 3.62143984220907  2.46191643454039 6.10336291913215  L 2.46191643454039 6.40741617357001  C 0.299155060352832 7.76504930966469  0.0306406685236769 10.1031952662722  0.0306406685236769 11.8096646942801  C 0.0306406685236769 14.0794575936884  2.22757660167131 19.1870808678501  5.33502042711235 19.9601775147929  C 5.33502042711235 19.9601775147929  14.113 14.1666666666667  22 14.1666666666667  C 29.887 14.1666666666667  38.6649795728876 19.9601775147929  38.6649795728876 19.9601775147929  C 41.7724233983287 19.1870808678501  43.9693593314763 14.0794575936884  43.9693593314763 11.8096646942801  Z " fill-rule="nonzero" fill="#fcd3c0" stroke="none" transform="matrix(1 0 0 1 50 50 )" />
  </g>
</svg>