<?xml version="1.0" encoding="utf-8"?>
<svg version="1.1" xmlns:xlink="http://www.w3.org/1999/xlink" width="19px" height="19px" xmlns="http://www.w3.org/2000/svg">
  <g transform="matrix(1 0 0 1 -62 -39 )">
    <path d="M 18.9604166666667 9.5  C 18.9604166666667 14.7337753396029  14.7174197916667 18.9900731452456  9.5 18.9900731452456  C 4.28258020833333 18.9900731452456  0.0395833333333345 14.7337753396029  0.0395833333333345 9.5  C 0.0395833333333345 4.26622466039707  4.28258020833333 0.0099268547544387  9.5 0.0099268547544387  C 14.7174197916667 0.0099268547544387  18.9604166666667 4.26622466039707  18.9604166666667 9.5  Z M 16.5953125 9.5  C 16.5953125 5.57585475444096  13.4118822916667 2.38244514106583  9.5 2.38244514106583  C 5.58811770833333 2.38244514106583  2.4046875 5.57585475444096  2.4046875 9.5  C 2.4046875 13.424145245559  5.58811770833333 16.6175548589342  9.5 16.6175548589342  C 13.4118822916667 16.6175548589342  16.5953125 13.424145245559  16.5953125 9.5  Z " fill-rule="nonzero" fill="#e6e6e5" stroke="none" transform="matrix(1 0 0 1 62 39 )" />
  </g>
</svg>