<?xml version="1.0" encoding="utf-8"?>
<svg version="1.1" xmlns:xlink="http://www.w3.org/1999/xlink" width="29px" height="29px" xmlns="http://www.w3.org/2000/svg">
  <defs>
    <linearGradient gradientUnits="userSpaceOnUse" x1="7.98454010501413" y1="8.03227798209483" x2="23.5994925505297" y2="23.6803831928875" id="LinearGradient1933">
      <stop id="Stop1934" stop-color="#010101" stop-opacity="0.101960784313725" offset="0" />
      <stop id="Stop1935" stop-color="#010101" stop-opacity="0" offset="1" />
    </linearGradient>
  </defs>
  <g transform="matrix(1 0 0 1 -65 -42 )">
    <path d="M 28.9692796610169 20.4775300778485  C 28.9692796610169 18.7018598726115  28.7000670903955 16.2688973814579  26.5316822033898 14.8562094833687  L 26.5316822033898 14.7384854918613  L 26.5316822033898 14.5398262561925  C 26.5414717514124 14.0345941259731  26.551261299435 13.5416249115357  26.5194452683616 13.0388453644728  L 26.4974187853107 12.7101992215145  L 13.8640070621469 0.0524175513092682  C 15.7027739208734 1.88994483715183  16.7350271672504 4.38602852612219  16.7323446327684 6.98832271762208  C 16.7323446327684 12.3987211606511  12.3417323446328 16.7986553432413  6.94279661016949 16.7986553432413  C 4.34645757370568 16.8003125297293  1.85651346264623 15.764972765571  0.0240335451977399 13.9217753007785  L 0.0215861581920945 13.9242278839349  L 9.16747139830509 23.0919837225761  C 16.4117369350283 24.0141549893843  23.6511076977401 28.9585626326964  23.6511076977401 28.9585626326964  C 26.7666313559322 28.1541153573956  28.9692796610169 22.8393676574664  28.9692796610169 20.4775300778485  Z " fill-rule="nonzero" fill="url(#LinearGradient1933)" stroke="none" transform="matrix(1 0 0 1 65 42 )" />
  </g>
</svg>