<?xml version="1.0" encoding="utf-8"?>
<svg version="1.1" xmlns:xlink="http://www.w3.org/1999/xlink" width="44px" height="55px" xmlns="http://www.w3.org/2000/svg">
  <defs>
    <linearGradient gradientUnits="userSpaceOnUse" x1="0.360093669266483" y1="16.4737514233105" x2="43.2927152692665" y2="36.9381933414958" id="LinearGradient1936">
      <stop id="Stop1937" stop-color="#ffffff" stop-opacity="0.2" offset="0" />
      <stop id="Stop1938" stop-color="#ffffff" stop-opacity="0" offset="1" />
    </linearGradient>
  </defs>
  <g transform="matrix(1 0 0 1 -50 -29 )">
    <path d="M 43.9693593314763 33.7381359149582  C 43.9693593314763 31.9315717539863  43.7008449396472 29.4562794229309  41.5380835654596 28.0190129081245  L 41.5380835654596 27.8992406985573  L 41.5380835654596 27.6971250949127  C 41.5478477251625 27.1831026955201  41.5576118848654 26.6815565679575  41.525878365831 26.1700294229309  L 40.542139275766 11.0937025436598  C 40.3599274110412 8.17157203123542  38.7517171497367 5.53922425149373  36.2629962859796 4.08952353834472  C 33.1018495821727 2.24802581624905  28.0611021355618 0.052201974183748  22 0.052201974183748  C 15.9388978644383 0.052201974183748  10.8981504178273 2.24802581624905  7.73700371402043 4.08952353834472  C 5.24828285026332 5.53922425149373  3.64007258895879 8.17157203123542  3.45786072423398 11.0937025436598  L 2.47168059424327 26.1700294229309  C 2.43994707520891 26.6815565679575  2.44727019498607 27.1831026955201  2.45947539461467 27.6971250949127  L 2.45947539461467 28.0190129081245  C 0.299155060352832 29.4562794229309  0.0306406685236769 31.9315717539863  0.0306406685236769 33.7381359149582  C 0.0306406685236769 36.1410658694001  2.22757660167131 41.5482820804859  5.33502042711235 42.3667255125285  C 6.70444382544104 44.976761579347  12.5556165273909 54.9477980258163  22 54.9477980258163  C 31.4443834726091 54.9477980258163  37.295556174559 44.976761579347  38.6649795728876 42.3667255125285  C 41.7724233983287 41.5482820804859  43.9693593314763 36.1410658694001  43.9693593314763 33.7381359149582  Z " fill-rule="nonzero" fill="url(#LinearGradient1936)" stroke="none" transform="matrix(1 0 0 1 50 29 )" />
  </g>
</svg>