<?xml version="1.0" encoding="utf-8"?>
<svg version="1.1" xmlns:xlink="http://www.w3.org/1999/xlink" width="75px" height="74px" xmlns="http://www.w3.org/2000/svg">
  <g transform="matrix(1 0 0 1 -31 -36 )">
    <path d="M 51.6516487730061 25  L 51.1311349693252 23.1719202898551  C 49.9166027607362 18.3190217391304  46.4465107361963 14.5060300207039  41.9353911042945 12.9461697722567  C 43.4969325153374 11.5596273291925  44.5379601226994 9.65313146997929  44.5379601226994 7.4  C 44.5379601226994 3.41369047619048  41.2413726993865 0.120652173913043  37.2507668711656 0.120652173913043  C 33.2601610429448 0.120652173913043  29.9635736196319 3.41369047619048  29.9635736196319 7.4  C 29.9635736196319 9.65313146997929  31.0046012269939 11.5596273291925  32.5661426380368 12.9461697722567  C 28.055023006135 14.5060300207039  24.5849309815951 18.3190217391304  23.3703987730061 23.1719202898551  L 23.0233895705522 25  L 51.6516487730061 25  Z M 37.2507668711656 12.0795807453416  C 34.6481978527607 12.0795807453416  32.5661426380368 9.99976708074534  32.5661426380368 7.4  C 32.5661426380368 4.80023291925466  34.6481978527607 2.72041925465838  37.2507668711656 2.72041925465838  C 39.8533358895706 2.72041925465838  41.9353911042945 4.80023291925466  41.9353911042945 7.4  C 41.9353911042945 9.99976708074534  39.8533358895706 12.0795807453416  37.2507668711656 12.0795807453416  Z M 48.1815567484663 23  L 26.319976993865 23  C 28.055023006135 17.6257505175983  32.3926380368098 14.679347826087  37.2507668711656 14.679347826087  C 42.1088957055215 14.679347826087  46.4465107361963 17.6257505175983  48.1815567484663 23  Z M 74.2072469325153 65.4614648033126  C 72.8192101226994 60.435248447205  69.3491180981595 56.7955745341615  64.8379984662577 55.0623964803313  C 66.3995398773006 53.6758540372671  67.4405674846626 51.7693581780538  67.4405674846626 49.5162267080745  C 67.4405674846626 45.529917184265  64.1439800613497 42.2368788819876  60.1533742331288 42.2368788819876  C 56.162768404908 42.2368788819876  52.8661809815951 45.703234989648  52.8661809815951 49.6895445134576  C 52.8661809815951 51.9426759834369  53.9072085889571 53.8491718426501  55.46875 55.2357142857143  C 50.9576303680982 56.7955745341615  47.4875383435583 60.608566252588  46.2730061349693 65.4614648033126  L 45.9259969325153 67  L 74.5542561349693 67  L 74.2072469325153 65.4614648033126  Z M 60.1533742331288 54.3691252587992  C 57.5508052147239 54.3691252587992  55.46875 52.2893115942029  55.46875 49.6895445134576  C 55.46875 47.0897774327122  57.5508052147239 45.0099637681159  60.1533742331288 45.0099637681159  C 62.7559432515337 45.0099637681159  64.8379984662577 47.0897774327122  64.8379984662577 49.6895445134576  C 64.8379984662577 52.2893115942029  62.7559432515337 54.3691252587992  60.1533742331288 54.3691252587992  Z M 71.0841641104294 64  L 49.2225843558282 64  C 50.9576303680982 59.9152950310559  55.295245398773 56.9688923395445  60.1533742331288 56.9688923395445  C 65.0115030674847 56.9688923395445  69.3491180981595 59.9152950310559  71.0841641104294 64  Z M 0.120782208588958 67  L 28.575536809816 67  L 28.228527607362 65.4614648033126  C 27.013995398773 60.608566252588  23.5439033742331 56.7955745341615  19.0327837423313 55.2357142857143  C 20.5943251533742 53.8491718426501  21.6353527607362 51.9426759834369  21.6353527607362 49.6895445134576  C 21.6353527607362 45.703234989648  18.3387653374233 42.4101966873706  14.3481595092025 42.4101966873706  C 10.3575536809816 42.4101966873706  7.06096625766871 45.703234989648  7.06096625766871 49.6895445134576  C 7.06096625766871 51.9426759834369  8.10199386503067 53.8491718426501  9.66353527607362 55.2357142857143  C 5.15241564417178 56.7955745341615  1.6823236196319 60.608566252588  0.467791411042946 65.4614648033126  L 0.120782208588958 67  Z M 14.3481595092025 54.3691252587992  C 11.7455904907975 54.3691252587992  9.66353527607362 52.2893115942029  9.66353527607362 49.6895445134576  C 9.66353527607362 47.0897774327122  11.7455904907975 45.0099637681159  14.3481595092025 45.0099637681159  C 16.9507285276074 45.0099637681159  19.0327837423313 47.0897774327122  19.0327837423313 49.6895445134576  C 19.0327837423313 52.2893115942029  16.9507285276074 54.3691252587992  14.3481595092025 54.3691252587992  Z M 3.41736963190184 64  C 5.15241564417178 59.9152950310559  9.31652607361963 56.9688923395445  14.3481595092025 56.9688923395445  C 19.2062883435583 56.9688923395445  23.5439033742331 59.9152950310559  25.2789493865031 64  L 3.41736963190184 64  Z M 6.36694785276074 40.1570652173913  C 6.36694785276074 27.3315476190476  14.5216641104294 15.7192546583851  26.840490797546 11.3863095238095  L 25.972967791411 8.9598602484472  C 12.7866180981595 13.6394409937888  3.76437883435583 26.2916407867495  3.76437883435583 40.3303830227743  C 3.76437883435583 41.5436076604555  3.76437883435583 42.9301501035197  3.93788343558282 44.1433747412008  L 6.54045245398773 43.7967391304348  C 6.36694785276074 42.5835144927536  6.36694785276074 41.3702898550725  6.36694785276074 40.1570652173913  Z M 24.9319401840491 68.9278209109731  L 24.0644171779141 71.1809523809524  C 28.228527607362 72.9141304347826  32.7396472392638 73.9540372670808  37.2507668711656 73.9540372670808  C 41.5883819018405 73.9540372670808  45.7524923312883 73.0874482401656  49.7430981595092 71.5275879917184  L 48.7020705521472 69.1011387163561  C 41.0678680981595 72.2208592132505  32.3926380368098 72.0475414078675  24.9319401840491 68.9278209109731  Z M 67.7875766871166 43.6234213250518  L 70.5636503067485 43.7967391304348  C 70.7371549079755 42.7568322981367  70.7371549079755 41.5436076604555  70.7371549079755 40.3303830227743  C 70.7371549079755 25.9450051759834  61.5414110429448 13.2928053830228  48.0080521472393 8.61322463768116  L 46.9670245398773 11.2129917184265  C 59.6328604294478 15.372619047619  67.9610812883436 27.1582298136646  67.9610812883436 40.5037008281573  C 67.9610812883436 41.5436076604555  67.9610812883436 42.5835144927536  67.7875766871166 43.6234213250518  Z " fill-rule="nonzero" fill="#fbfdff" stroke="none" transform="matrix(1 0 0 1 31 36 )" />
  </g>
</svg>