<?xml version="1.0" encoding="utf-8"?>
<svg version="1.1" xmlns:xlink="http://www.w3.org/1999/xlink" width="17px" height="14px" xmlns="http://www.w3.org/2000/svg">
  <g transform="matrix(1 0 0 1 -354 -180 )">
    <path d="M 8.91741071428571 13.8359375  C 8.80357142857143 13.9453125  8.66443452380952 14  8.5 14  C 8.33556547619048 14  8.19642857142857 13.9453125  8.08258928571428 13.8359375  L 2.16294642857143 8.34895833333333  C 2.09970238095238 8.30034722222222  2.01274181547619 8.22135416666667  1.90206473214286 8.11197916666667  C 1.79138764880952 8.00260416666667  1.61588541666667 7.80360243055556  1.37555803571429 7.51497395833333  C 1.1352306547619 7.22634548611111  0.920200892857143 6.93012152777778  0.73046875 6.62630208333333  C 0.540736607142857 6.32248263888889  0.371558779761905 5.95486111111111  0.222935267857143 5.5234375  C 0.074311755952381 5.09201388888889  0 4.67274305555555  0 4.265625  C 0 2.92881944444444  0.401599702380952 1.88368055555555  1.20479910714286 1.13020833333333  C 2.00799851190476 0.376736111111111  3.11793154761905 0  4.53459821428571 0  C 4.92671130952381 0  5.32672991071429 0.0653211805555547  5.73465401785714 0.195963541666667  C 6.142578125 0.326605902777777  6.52204241071429 0.502821180555555  6.873046875 0.724609375  C 7.22405133928572 0.946397569444444  7.52604166666667 1.15451388888889  7.77901785714286 1.34895833333333  C 8.03199404761905 1.54340277777778  8.27232142857143 1.75  8.5 1.96875  C 8.72767857142857 1.75  8.96800595238095 1.54340277777778  9.22098214285714 1.34895833333333  C 9.47395833333333 1.15451388888889  9.77594866071429 0.946397569444444  10.126953125 0.724609375  C 10.4779575892857 0.502821180555555  10.857421875 0.326605902777777  11.2653459821429 0.195963541666667  C 11.6732700892857 0.0653211805555547  12.0732886904762 0  12.4654017857143 0  C 13.882068452381 0  14.9920014880952 0.376736111111111  15.7952008928571 1.13020833333333  C 16.598400297619 1.88368055555555  17 2.92881944444444  17 4.265625  C 17 5.60850694444444  16.2758556547619 6.97569444444444  14.8275669642857 8.3671875  L 8.91741071428571 13.8359375  Z " fill-rule="nonzero" fill="#bd1616" stroke="none" transform="matrix(1 0 0 1 354 180 )" />
  </g>
</svg>