<?xml version="1.0" encoding="utf-8"?>
<svg version="1.1" xmlns:xlink="http://www.w3.org/1999/xlink" width="33px" height="60px" xmlns="http://www.w3.org/2000/svg">
  <defs>
    <mask fill="white" id="clip1949">
      <path d="M 0 4.09090909090909  C 0 1.90909090909091  1.925 0  4.125 0  C 4.125 0  28.875 0  28.875 0  C 31.075 0  33 1.90909090909091  33 4.09090909090909  C 33 4.09090909090909  33 60  33 60  C 33 60  0 60  0 60  C 0 60  0 4.09090909090909  0 4.09090909090909  Z " fill-rule="evenodd" />
    </mask>
  </defs>
  <g transform="matrix(1 0 0 1 -148 -359 )">
    <path d="M 0 4.09090909090909  C 0 1.90909090909091  1.925 0  4.125 0  C 4.125 0  28.875 0  28.875 0  C 31.075 0  33 1.90909090909091  33 4.09090909090909  C 33 4.09090909090909  33 60  33 60  C 33 60  0 60  0 60  C 0 60  0 4.09090909090909  0 4.09090909090909  Z " fill-rule="nonzero" fill="#ffffff" stroke="none" fill-opacity="0" transform="matrix(1 0 0 1 148 359 )" />
    <path d="M 0 4.09090909090909  C 0 1.90909090909091  1.925 0  4.125 0  C 4.125 0  28.875 0  28.875 0  C 31.075 0  33 1.90909090909091  33 4.09090909090909  C 33 4.09090909090909  33 60  33 60  C 33 60  0 60  0 60  C 0 60  0 4.09090909090909  0 4.09090909090909  Z " stroke-width="4" stroke="#ffffff" fill="none" transform="matrix(1 0 0 1 148 359 )" mask="url(#clip1949)" />
  </g>
</svg>