<?xml version="1.0" encoding="utf-8"?>
<svg version="1.1" xmlns:xlink="http://www.w3.org/1999/xlink" width="16px" height="16px" xmlns="http://www.w3.org/2000/svg">
  <defs>
    <mask fill="white" id="clip1950">
      <path d="M 16 12  C 16 12  16 4  16 4  C 16 4  12 4  12 4  C 12 4  12 0  12 0  C 12 0  4 0  4 0  C 4 0  4 4  4 4  C 4 4  0 4  0 4  C 0 4  0 12  0 12  C 0 12  4 12  4 12  C 4 12  4 16  4 16  C 4 16  12 16  12 16  C 12 16  12 12  12 12  C 12 12  16 12  16 12  Z " fill-rule="evenodd" />
    </mask>
  </defs>
  <g transform="matrix(1 0 0 1 -156 -367 )">
    <path d="M 16 12  C 16 12  16 4  16 4  C 16 4  12 4  12 4  C 12 4  12 0  12 0  C 12 0  4 0  4 0  C 4 0  4 4  4 4  C 4 4  0 4  0 4  C 0 4  0 12  0 12  C 0 12  4 12  4 12  C 4 12  4 16  4 16  C 4 16  12 16  12 16  C 12 16  12 12  12 12  C 12 12  16 12  16 12  Z " fill-rule="nonzero" fill="#ffffff" stroke="none" fill-opacity="0" transform="matrix(1 0 0 1 156 367 )" />
    <path d="M 16 12  C 16 12  16 4  16 4  C 16 4  12 4  12 4  C 12 4  12 0  12 0  C 12 0  4 0  4 0  C 4 0  4 4  4 4  C 4 4  0 4  0 4  C 0 4  0 12  0 12  C 0 12  4 12  4 12  C 4 12  4 16  4 16  C 4 16  12 16  12 16  C 12 16  12 12  12 12  C 12 12  16 12  16 12  Z " stroke-width="4" stroke="#ffffff" fill="none" transform="matrix(1 0 0 1 156 367 )" mask="url(#clip1950)" />
  </g>
</svg>